<svg xmlns="http://www.w3.org/2000/svg" width="1248" height="765" viewBox="0 0 1248 765" role="img" aria-label="Отправленные отклики в очереди Otklik">
  <rect x="0" y="0" width="1248" height="765" fill="#fafbfc"/>
  <rect x="0" y="0" width="1248" height="44" fill="#f1f3f5"/>
  <circle cx="24" cy="22" r="6" fill="#c9ccd3"/>
  <circle cx="44" cy="22" r="6" fill="#c9ccd3"/>
  <circle cx="64" cy="22" r="6" fill="#c9ccd3"/>
  <rect x="576" y="15" width="96" height="14" rx="7" fill="#f1f3f5"/>
  <rect x="0" y="44" width="232" height="721" fill="#ffffff" stroke="#e3e6ea"/>
  <rect x="24" y="76" width="88" height="16" rx="8" fill="#c9ccd3"/>
  <rect x="16" y="120" width="200" height="40" rx="10" fill="#fbe4e0"/>
  <rect x="32" y="134" width="18" height="12" rx="4" fill="#c0361f"/>
  <rect x="62" y="133" width="104" height="14" rx="7" fill="#c9ccd3"/>
  <rect x="32" y="182" width="18" height="12" rx="4" fill="#c9ccd3"/>
  <rect x="62" y="181" width="84" height="14" rx="7" fill="#c9ccd3"/>
  <rect x="32" y="230" width="18" height="12" rx="4" fill="#c9ccd3"/>
  <rect x="62" y="229" width="120" height="14" rx="7" fill="#c9ccd3"/>
  <rect x="32" y="278" width="18" height="12" rx="4" fill="#c9ccd3"/>
  <rect x="62" y="277" width="68" height="14" rx="7" fill="#c9ccd3"/>
  <rect x="16" y="693" width="200" height="48" rx="10" fill="#f1f3f5"/>
  <circle cx="44" cy="717" r="14" fill="#c9ccd3"/>
  <rect x="68" y="711" width="88" height="12" rx="6" fill="#c9ccd3"/>
  <rect x="256" y="76" width="180" height="16" rx="8" fill="#c9ccd3"/>
  <rect x="1000" y="72" width="216" height="40" rx="10" fill="#dcf5e6"/>
  <rect x="1040" y="86" width="136" height="12" rx="6" fill="#c9ccd3"/>
  <rect x="256" y="168" width="960" height="92" rx="16" fill="#ffffff" stroke="#e3e6ea"/>
  <rect x="288" y="192" width="280" height="14" rx="7" fill="#c9ccd3"/>
  <rect x="288" y="222" width="180" height="10" rx="5" fill="#c9ccd3"/>
  <rect x="1060" y="202" width="124" height="24" rx="12" fill="#dcf5e6"/>
  <path d="M1078 214 l6 6 l12 -12" stroke="#c0361f" stroke-width="3" fill="none" stroke-linecap="round" stroke-linejoin="round"/>
  <rect x="256" y="276" width="960" height="92" rx="16" fill="#ffffff" stroke="#e3e6ea"/>
  <rect x="288" y="300" width="280" height="14" rx="7" fill="#c9ccd3"/>
  <rect x="288" y="330" width="180" height="10" rx="5" fill="#c9ccd3"/>
  <rect x="1060" y="310" width="124" height="24" rx="12" fill="#dcf5e6"/>
  <path d="M1078 322 l6 6 l12 -12" stroke="#c0361f" stroke-width="3" fill="none" stroke-linecap="round" stroke-linejoin="round"/>
  <rect x="256" y="384" width="960" height="92" rx="16" fill="#ffffff" stroke="#e3e6ea"/>
  <rect x="288" y="408" width="280" height="14" rx="7" fill="#c9ccd3"/>
  <rect x="288" y="438" width="180" height="10" rx="5" fill="#c9ccd3"/>
  <rect x="1060" y="418" width="124" height="24" rx="12" fill="#dcf5e6"/>
  <path d="M1078 430 l6 6 l12 -12" stroke="#c0361f" stroke-width="3" fill="none" stroke-linecap="round" stroke-linejoin="round"/>
  <rect x="256" y="492" width="960" height="92" rx="16" fill="#ffffff" stroke="#e3e6ea"/>
  <rect x="288" y="516" width="280" height="14" rx="7" fill="#c9ccd3"/>
  <rect x="288" y="546" width="180" height="10" rx="5" fill="#c9ccd3"/>
  <rect x="1060" y="526" width="124" height="24" rx="12" fill="#dcf5e6"/>
  <path d="M1078 538 l6 6 l12 -12" stroke="#c0361f" stroke-width="3" fill="none" stroke-linecap="round" stroke-linejoin="round"/>
  <rect x="256" y="600" width="960" height="92" rx="16" fill="#ffffff" stroke="#e3e6ea"/>
  <rect x="288" y="624" width="280" height="14" rx="7" fill="#c9ccd3"/>
  <rect x="288" y="654" width="180" height="10" rx="5" fill="#c9ccd3"/>
  <rect x="1060" y="634" width="124" height="24" rx="12" fill="#dcf5e6"/>
  <path d="M1078 646 l6 6 l12 -12" stroke="#c0361f" stroke-width="3" fill="none" stroke-linecap="round" stroke-linejoin="round"/>
</svg>
