<svg xmlns="http://www.w3.org/2000/svg" width="1248" height="765" viewBox="0 0 1248 765" role="img" aria-label="Разбор сопроводительного письма и AI-чат в Otklik">
  <rect width="1248" height="765" fill="#ffffff"/>
  <rect x="0" y="0" width="1248" height="44" fill="#f4f4f5"/>
  <circle cx="24" cy="22" r="6" fill="#d4d4d8"/>
  <circle cx="44" cy="22" r="6" fill="#d4d4d8"/>
  <circle cx="64" cy="22" r="6" fill="#d4d4d8"/>
  <rect x="576" y="15" width="96" height="14" rx="7" fill="#f4f4f5"/>
  <rect x="0" y="44" width="232" height="721" fill="#fafafa" stroke="#e4e4e7"/>
  <rect x="24" y="76" width="88" height="16" rx="8" fill="#d4d4d8"/>
  <rect x="16" y="120" width="200" height="40" rx="10" fill="#fee2e2" fill-opacity="1"/>
  <rect x="32" y="134" width="18" height="12" rx="4" fill="#c1341c"/>
  <rect x="62" y="133" width="104" height="14" rx="7" fill="#d4d4d8"/>
  <rect x="32" y="182" width="18" height="12" rx="4" fill="#d4d4d8"/>
  <rect x="62" y="181" width="84" height="14" rx="7" fill="#d4d4d8"/>
  <rect x="32" y="230" width="18" height="12" rx="4" fill="#d4d4d8"/>
  <rect x="62" y="229" width="120" height="14" rx="7" fill="#d4d4d8"/>
  <rect x="32" y="278" width="18" height="12" rx="4" fill="#d4d4d8"/>
  <rect x="62" y="277" width="68" height="14" rx="7" fill="#d4d4d8"/>
  <rect x="16" y="693" width="200" height="48" rx="10" fill="#f4f4f5"/>
  <circle cx="44" cy="717" r="14" fill="#d4d4d8"/>
  <rect x="68" y="711" width="88" height="12" rx="6" fill="#d4d4d8"/>
  <!-- список слева, приглушён -->
  <rect x="256" y="76" width="300" height="628" rx="16" fill="#fafafa" stroke="#e4e4e7"/>
  <rect x="280" y="108" width="200" height="12" rx="6" fill="#f4f4f5"/>
  <rect x="280" y="140" width="140" height="12" rx="6" fill="#f4f4f5"/>
  <rect x="280" y="200" width="220" height="12" rx="6" fill="#f4f4f5"/>
  <rect x="280" y="232" width="160" height="12" rx="6" fill="#f4f4f5"/>
  <rect x="280" y="292" width="180" height="12" rx="6" fill="#f4f4f5"/>
  <rect x="280" y="324" width="200" height="12" rx="6" fill="#f4f4f5"/>
  <!-- панель письма -->
  <rect x="580" y="76" width="636" height="628" rx="16" fill="#fafafa" stroke="#e4e4e7"/>
  <rect x="612" y="108" width="220" height="16" rx="8" fill="#d4d4d8"/>
  <rect x="612" y="140" width="300" height="10" rx="5" fill="#d4d4d8"/>
  <rect x="612" y="180" width="572" height="300" rx="10" fill="#ffffff" stroke="#e4e4e7"/>
  <rect x="636" y="208" width="520" height="10" rx="5" fill="#d4d4d8"/>
  <rect x="636" y="234" width="480" height="10" rx="5" fill="#d4d4d8"/>
  <rect x="636" y="260" width="524" height="10" rx="5" fill="#d4d4d8"/>
  <rect x="636" y="286" width="440" height="10" rx="5" fill="#d4d4d8"/>
  <rect x="636" y="312" width="500" height="10" rx="5" fill="#d4d4d8"/>
  <rect x="636" y="338" width="300" height="10" rx="5" fill="#d4d4d8"/>
  <!-- AI-чат -->
  <rect x="612" y="500" width="572" height="108" rx="10" fill="#ffffff" stroke="#e4e4e7"/>
  <rect x="636" y="522" width="120" height="24" rx="12" fill="#fee2e2" fill-opacity="1"/>
  <rect x="768" y="522" width="140" height="24" rx="12" fill="#f4f4f5"/>
  <rect x="920" y="522" width="160" height="24" rx="12" fill="#f4f4f5"/>
  <rect x="636" y="566" width="400" height="12" rx="6" fill="#d4d4d8"/>
  <!-- действия -->
  <rect x="612" y="632" width="120" height="44" rx="10" fill="#f4f4f5"/>
  <rect x="744" y="632" width="120" height="44" rx="10" fill="#f4f4f5"/>
  <rect x="1064" y="632" width="120" height="44" rx="10" fill="#c1341c"/>
  <rect x="1096" y="650" width="56" height="12" rx="6" fill="#ffffff" fill-opacity="0.9"/>
</svg>
