<svg xmlns="http://www.w3.org/2000/svg" width="1248" height="765" viewBox="0 0 1248 765" role="img" aria-label="Настройки Otklik: резюме, стиль письма, LLM-провайдеры">
  <rect width="1248" height="765" fill="#ffffff"/>
  <rect x="0" y="0" width="1248" height="44" fill="#f4f4f5"/>
  <circle cx="24" cy="22" r="6" fill="#d4d4d8"/>
  <circle cx="44" cy="22" r="6" fill="#d4d4d8"/>
  <circle cx="64" cy="22" r="6" fill="#d4d4d8"/>
  <rect x="576" y="15" width="96" height="14" rx="7" fill="#f4f4f5"/>
  <rect x="0" y="44" width="232" height="721" fill="#fafafa" stroke="#e4e4e7"/>
  <rect x="24" y="76" width="88" height="16" rx="8" fill="#d4d4d8"/>
  <rect x="32" y="134" width="18" height="12" rx="4" fill="#d4d4d8"/>
  <rect x="62" y="133" width="104" height="14" rx="7" fill="#d4d4d8"/>
  <rect x="32" y="182" width="18" height="12" rx="4" fill="#d4d4d8"/>
  <rect x="62" y="181" width="84" height="14" rx="7" fill="#d4d4d8"/>
  <rect x="16" y="216" width="200" height="40" rx="10" fill="#fee2e2" fill-opacity="1"/>
  <rect x="32" y="230" width="18" height="12" rx="4" fill="#c1341c"/>
  <rect x="62" y="229" width="120" height="14" rx="7" fill="#d4d4d8"/>
  <rect x="32" y="278" width="18" height="12" rx="4" fill="#d4d4d8"/>
  <rect x="62" y="277" width="68" height="14" rx="7" fill="#d4d4d8"/>
  <rect x="16" y="693" width="200" height="48" rx="10" fill="#f4f4f5"/>
  <circle cx="44" cy="717" r="14" fill="#d4d4d8"/>
  <rect x="68" y="711" width="88" height="12" rx="6" fill="#d4d4d8"/>
  <rect x="256" y="76" width="140" height="16" rx="8" fill="#d4d4d8"/>
  <!-- вкладки -->
  <rect x="256" y="112" width="88" height="32" rx="8" fill="#fee2e2" fill-opacity="1"/>
  <rect x="276" y="123" width="48" height="10" rx="5" fill="#c1341c"/>
  <rect x="352" y="112" width="88" height="32" rx="8" fill="#f4f4f5"/>
  <rect x="372" y="123" width="48" height="10" rx="5" fill="#d4d4d8"/>
  <rect x="448" y="112" width="88" height="32" rx="8" fill="#f4f4f5"/>
  <rect x="468" y="123" width="48" height="10" rx="5" fill="#d4d4d8"/>
  <!-- резюме -->
  <rect x="256" y="168" width="960" height="220" rx="16" fill="#fafafa" stroke="#e4e4e7"/>
  <rect x="288" y="196" width="120" height="14" rx="7" fill="#d4d4d8"/>
  <rect x="288" y="228" width="896" height="132" rx="10" fill="#ffffff" stroke="#e4e4e7"/>
  <rect x="312" y="252" width="820" height="10" rx="5" fill="#d4d4d8"/>
  <rect x="312" y="276" width="760" height="10" rx="5" fill="#d4d4d8"/>
  <rect x="312" y="300" width="840" height="10" rx="5" fill="#d4d4d8"/>
  <rect x="312" y="324" width="600" height="10" rx="5" fill="#d4d4d8"/>
  <!-- LLM-провайдеры -->
  <rect x="256" y="408" width="960" height="296" rx="16" fill="#fafafa" stroke="#e4e4e7"/>
  <rect x="288" y="436" width="180" height="14" rx="7" fill="#d4d4d8"/>
  <rect x="288" y="472" width="896" height="64" rx="10" fill="#ffffff" stroke="#e4e4e7"/>
  <rect x="312" y="494" width="16" height="16" rx="4" fill="#c1341c"/>
  <rect x="344" y="496" width="240" height="12" rx="6" fill="#d4d4d8"/>
  <rect x="1080" y="494" width="80" height="20" rx="10" fill="#dcfce7"/>
  <rect x="288" y="552" width="896" height="64" rx="10" fill="#ffffff" stroke="#e4e4e7"/>
  <rect x="312" y="574" width="16" height="16" rx="4" fill="#d4d4d8"/>
  <rect x="344" y="576" width="200" height="12" rx="6" fill="#d4d4d8"/>
  <rect x="288" y="632" width="896" height="48" rx="10" fill="#ffffff" stroke="#e4e4e7"/>
  <rect x="312" y="650" width="160" height="12" rx="6" fill="#d4d4d8"/>
</svg>
