<svg xmlns="http://www.w3.org/2000/svg" width="1248" height="765" viewBox="0 0 1248 765" role="img" aria-label="Вход в аккаунт hh.ru в окне Otklik">
  <rect width="1248" height="765" fill="#ffffff"/>
  <rect x="0" y="0" width="1248" height="44" fill="#f4f4f5"/>
  <circle cx="24" cy="22" r="6" fill="#d4d4d8"/>
  <circle cx="44" cy="22" r="6" fill="#d4d4d8"/>
  <circle cx="64" cy="22" r="6" fill="#d4d4d8"/>
  <rect x="576" y="15" width="96" height="14" rx="7" fill="#f4f4f5"/>
  <rect x="0" y="44" width="232" height="721" fill="#fafafa" stroke="#e4e4e7"/>
  <rect x="24" y="76" width="88" height="16" rx="8" fill="#d4d4d8"/>
  <rect x="32" y="134" width="18" height="12" rx="4" fill="#d4d4d8"/>
  <rect x="62" y="133" width="104" height="14" rx="7" fill="#d4d4d8"/>
  <rect x="32" y="182" width="18" height="12" rx="4" fill="#d4d4d8"/>
  <rect x="62" y="181" width="84" height="14" rx="7" fill="#d4d4d8"/>
  <rect x="32" y="230" width="18" height="12" rx="4" fill="#d4d4d8"/>
  <rect x="62" y="229" width="120" height="14" rx="7" fill="#d4d4d8"/>
  <rect x="16" y="264" width="200" height="40" rx="10" fill="#fee2e2" fill-opacity="1"/>
  <rect x="32" y="278" width="18" height="12" rx="4" fill="#c1341c"/>
  <rect x="62" y="277" width="68" height="14" rx="7" fill="#d4d4d8"/>
  <rect x="16" y="693" width="200" height="48" rx="10" fill="#f4f4f5"/>
  <circle cx="44" cy="717" r="14" fill="#d4d4d8"/>
  <rect x="68" y="711" width="88" height="12" rx="6" fill="#d4d4d8"/>
  <rect x="256" y="76" width="960" height="628" rx="16" fill="#fafafa" stroke="#e4e4e7"/>
  <!-- окно логина -->
  <rect x="420" y="170" width="632" height="440" rx="16" fill="#ffffff" stroke="#e4e4e7"/>
  <rect x="420" y="170" width="632" height="44" rx="16" fill="#f4f4f5"/>
  <rect x="444" y="186" width="120" height="12" rx="6" fill="#d4d4d8"/>
  <rect x="468" y="258" width="180" height="18" rx="9" fill="#d4d4d8"/>
  <rect x="468" y="306" width="536" height="44" rx="10" fill="#fafafa" stroke="#e4e4e7"/>
  <rect x="492" y="320" width="200" height="12" rx="6" fill="#d4d4d8"/>
  <rect x="468" y="366" width="536" height="44" rx="10" fill="#fafafa" stroke="#e4e4e7"/>
  <rect x="492" y="380" width="160" height="12" rx="6" fill="#d4d4d8"/>
  <rect x="468" y="434" width="536" height="44" rx="10" fill="#c1341c"/>
  <rect x="676" y="452" width="120" height="12" rx="6" fill="#ffffff" fill-opacity="0.9"/>
  <rect x="468" y="502" width="280" height="12" rx="6" fill="#d4d4d8"/>
</svg>
