<svg xmlns="http://www.w3.org/2000/svg" width="1248" height="765" viewBox="0 0 1248 765" role="img" aria-label="Очередь вакансий Otklik с их статусами">
  <rect x="0" y="0" width="1248" height="765" fill="#1c1e24"/>
  <rect x="0" y="0" width="1248" height="44" fill="#23262d"/>
  <circle cx="24" cy="22" r="6" fill="#3a3e47"/>
  <circle cx="44" cy="22" r="6" fill="#3a3e47"/>
  <circle cx="64" cy="22" r="6" fill="#3a3e47"/>
  <rect x="576" y="15" width="96" height="14" rx="7" fill="#2b2f37"/>
  <rect x="0" y="44" width="232" height="721" fill="#23262d" stroke="none"/>
  <rect x="24" y="76" width="88" height="16" rx="8" fill="#3a3e47"/>
  <rect x="16" y="120" width="200" height="40" rx="10" fill="#4a2320"/>
  <rect x="32" y="134" width="18" height="12" rx="4" fill="#e2483a"/>
  <rect x="62" y="133" width="104" height="14" rx="7" fill="#3a3e47"/>
  <rect x="32" y="182" width="18" height="12" rx="4" fill="#3a3e47"/>
  <rect x="62" y="181" width="84" height="14" rx="7" fill="#3a3e47"/>
  <rect x="32" y="230" width="18" height="12" rx="4" fill="#3a3e47"/>
  <rect x="62" y="229" width="120" height="14" rx="7" fill="#3a3e47"/>
  <rect x="32" y="278" width="18" height="12" rx="4" fill="#3a3e47"/>
  <rect x="62" y="277" width="68" height="14" rx="7" fill="#3a3e47"/>
  <rect x="16" y="693" width="200" height="48" rx="10" fill="#2b2f37"/>
  <circle cx="44" cy="717" r="14" fill="#3a3e47"/>
  <rect x="68" y="711" width="88" height="12" rx="6" fill="#3a3e47"/>
  <rect x="256" y="76" width="180" height="16" rx="8" fill="#3a3e47"/>
  <rect x="1064" y="72" width="152" height="40" rx="10" fill="#e2483a"/>
  <rect x="1104" y="86" width="72" height="12" rx="6" fill="#fdece9"/>
  <rect x="256" y="168" width="960" height="92" rx="16" fill="#23262d" stroke="none"/>
  <rect x="288" y="192" width="280" height="14" rx="7" fill="#3a3e47"/>
  <rect x="288" y="222" width="180" height="10" rx="5" fill="#3a3e47"/>
  <rect x="1080" y="202" width="104" height="24" rx="12" fill="#1d4a33"/>
  <rect x="256" y="276" width="960" height="92" rx="16" fill="#23262d" stroke="none"/>
  <rect x="288" y="300" width="280" height="14" rx="7" fill="#3a3e47"/>
  <rect x="288" y="330" width="180" height="10" rx="5" fill="#3a3e47"/>
  <rect x="1080" y="310" width="104" height="24" rx="12" fill="#1d4a33"/>
  <rect x="256" y="384" width="960" height="92" rx="16" fill="#23262d" stroke="none"/>
  <rect x="288" y="408" width="280" height="14" rx="7" fill="#3a3e47"/>
  <rect x="288" y="438" width="180" height="10" rx="5" fill="#3a3e47"/>
  <rect x="1080" y="418" width="104" height="24" rx="12" fill="#2b2f37"/>
  <rect x="256" y="492" width="960" height="92" rx="16" fill="#23262d" stroke="none"/>
  <rect x="288" y="516" width="280" height="14" rx="7" fill="#3a3e47"/>
  <rect x="288" y="546" width="180" height="10" rx="5" fill="#3a3e47"/>
  <rect x="1080" y="526" width="104" height="24" rx="12" fill="#2b2f37"/>
  <rect x="256" y="600" width="960" height="92" rx="16" fill="#23262d" stroke="none"/>
  <rect x="288" y="624" width="280" height="14" rx="7" fill="#3a3e47"/>
  <rect x="288" y="654" width="180" height="10" rx="5" fill="#3a3e47"/>
  <rect x="1080" y="634" width="104" height="24" rx="12" fill="#2b2f37"/>
</svg>
