<svg xmlns="http://www.w3.org/2000/svg" width="1248" height="765" viewBox="0 0 1248 765" role="img" aria-label="Интерфейс Otklik">
  <rect width="1248" height="765" fill="#ffffff" />

  <!-- title bar -->
  <rect x="0" y="0" width="1248" height="44" fill="#f4f4f5" />
  <circle cx="24" cy="22" r="6" fill="#d4d4d8" />
  <circle cx="44" cy="22" r="6" fill="#d4d4d8" />
  <circle cx="64" cy="22" r="6" fill="#d4d4d8" />
  <rect x="576" y="15" width="96" height="14" rx="7" fill="#e4e4e7" />

  <!-- sidebar -->
  <rect x="0" y="44" width="232" height="721" fill="#fafafa" />
  <rect x="24" y="76" width="88" height="16" rx="8" fill="#a1a1aa" />
  <rect x="16" y="120" width="200" height="40" rx="10" fill="#fee2e2" />
  <rect x="32" y="134" width="18" height="12" rx="4" fill="#c1341c" />
  <rect x="62" y="133" width="104" height="14" rx="7" fill="#71717a" />
  <rect x="32" y="186" width="18" height="12" rx="4" fill="#d4d4d8" />
  <rect x="62" y="185" width="84" height="14" rx="7" fill="#d4d4d8" />
  <rect x="32" y="234" width="18" height="12" rx="4" fill="#d4d4d8" />
  <rect x="62" y="233" width="120" height="14" rx="7" fill="#d4d4d8" />
  <rect x="32" y="282" width="18" height="12" rx="4" fill="#d4d4d8" />
  <rect x="62" y="281" width="68" height="14" rx="7" fill="#d4d4d8" />
  <rect x="16" y="693" width="200" height="48" rx="10" fill="#f4f4f5" />
  <circle cx="44" cy="717" r="14" fill="#d4d4d8" />
  <rect x="68" y="711" width="88" height="12" rx="6" fill="#d4d4d8" />

  <!-- vacancy queue column -->
  <rect x="256" y="76" width="140" height="16" rx="8" fill="#a1a1aa" />
  <g fill="#fafafa" stroke="#e4e4e7">
    <rect x="256" y="112" width="344" height="96" rx="12" />
    <rect x="256" y="224" width="344" height="96" rx="12" />
    <rect x="256" y="336" width="344" height="96" rx="12" />
    <rect x="256" y="448" width="344" height="96" rx="12" />
    <rect x="256" y="560" width="344" height="96" rx="12" />
  </g>
  <rect x="256" y="112" width="4" height="96" rx="2" fill="#c1341c" />
  <g fill="#d4d4d8">
    <rect x="280" y="134" width="188" height="14" rx="7" />
    <rect x="280" y="162" width="120" height="12" rx="6" />
    <rect x="280" y="246" width="216" height="14" rx="7" />
    <rect x="280" y="274" width="96" height="12" rx="6" />
    <rect x="280" y="358" width="160" height="14" rx="7" />
    <rect x="280" y="386" width="132" height="12" rx="6" />
    <rect x="280" y="470" width="204" height="14" rx="7" />
    <rect x="280" y="498" width="88" height="12" rx="6" />
    <rect x="280" y="582" width="176" height="14" rx="7" />
    <rect x="280" y="610" width="112" height="12" rx="6" />
  </g>
  <rect x="524" y="130" width="52" height="20" rx="10" fill="#dcfce7" />
  <rect x="524" y="242" width="52" height="20" rx="10" fill="#f4f4f5" />
  <rect x="524" y="354" width="52" height="20" rx="10" fill="#f4f4f5" />

  <!-- cover letter panel -->
  <rect x="632" y="112" width="584" height="592" rx="16" fill="#fafafa" stroke="#e4e4e7" />
  <rect x="664" y="144" width="180" height="16" rx="8" fill="#a1a1aa" />
  <rect x="664" y="176" width="120" height="12" rx="6" fill="#d4d4d8" />
  <rect x="664" y="216" width="520" height="336" rx="12" fill="#ffffff" stroke="#e4e4e7" />
  <g fill="#d4d4d8">
    <rect x="688" y="244" width="472" height="12" rx="6" />
    <rect x="688" y="272" width="440" height="12" rx="6" />
    <rect x="688" y="300" width="472" height="12" rx="6" />
    <rect x="688" y="328" width="392" height="12" rx="6" />
    <rect x="688" y="368" width="472" height="12" rx="6" />
    <rect x="688" y="396" width="456" height="12" rx="6" />
    <rect x="688" y="424" width="336" height="12" rx="6" />
    <rect x="688" y="464" width="472" height="12" rx="6" />
    <rect x="688" y="492" width="248" height="12" rx="6" />
  </g>
  <rect x="664" y="588" width="120" height="40" rx="10" fill="#f4f4f5" />
  <rect x="796" y="588" width="120" height="40" rx="10" fill="#f4f4f5" />
  <rect x="1064" y="588" width="120" height="40" rx="10" fill="#c1341c" />
  <rect x="1096" y="602" width="56" height="12" rx="6" fill="#ffffff" fill-opacity="0.9" />
</svg>
